<svg width="26" height="26" viewBox="0 0 26 26" fill="none" xmlns="http://www.w3.org/2000/svg">
<g clip-path="url(#clip0_642_56)">
<circle cx="13" cy="13" r="12" stroke="#18A0FB" stroke-width="2"/>
<path d="M13 9.75H10.8333C10.546 9.75 10.2705 9.86414 10.0673 10.0673C9.86414 10.2705 9.75 10.546 9.75 10.8333C9.75 11.1207 9.86414 11.3962 10.0673 11.5994C10.2705 11.8025 10.546 11.9167 10.8333 11.9167H11.9167V19.5C11.9167 19.7873 12.0308 20.0629 12.234 20.266C12.4371 20.4692 12.7127 20.5833 13 20.5833C13.2873 20.5833 13.5629 20.4692 13.766 20.266C13.9692 20.0629 14.0833 19.7873 14.0833 19.5V10.8333C14.0833 10.546 13.9692 10.2705 13.766 10.0673C13.5629 9.86414 13.2873 9.75 13 9.75Z" fill="#18A0FB"/>
<path d="M13.0217 5.41669H13.0108C12.7225 5.41812 12.4466 5.53383 12.2435 5.73844C12.0404 5.94305 11.9268 6.21985 11.9275 6.50813C11.9282 6.79642 12.0432 7.07265 12.2473 7.27624C12.4514 7.47984 12.728 7.59417 13.0162 7.59417C13.3045 7.59417 13.581 7.47984 13.7851 7.27624C13.9892 7.07265 14.1043 6.79642 14.105 6.50813C14.1057 6.21985 13.9921 5.94305 13.789 5.73844C13.5859 5.53383 13.3099 5.41812 13.0217 5.41669Z" fill="#18A0FB"/>
</g>
<defs>
<clipPath id="clip0_642_56">
<rect width="26" height="26" fill="white"/>
</clipPath>
</defs>
</svg>
