<svg width="24" height="24" viewBox="0 0 24 24" fill="none" xmlns="http://www.w3.org/2000/svg">
<g clip-path="url(#clip0_642_90)">
<path fill-rule="evenodd" clip-rule="evenodd" d="M9.48039 0H10.8754C11.0232 -3.11333e-09 11.1695 0.0290989 11.306 0.0856354C11.4425 0.142172 11.5665 0.225039 11.671 0.329505C11.7754 0.433971 11.8583 0.55799 11.9149 0.694481C11.9714 0.830972 12.0005 0.977263 12.0005 1.125C12.0005 1.27274 11.9714 1.41903 11.9149 1.55552C11.8583 1.69201 11.7754 1.81603 11.671 1.9205C11.5665 2.02496 11.4425 2.10783 11.306 2.16436C11.1695 2.2209 11.0232 2.25 10.8754 2.25H9.52539C8.02533 2.25 6.97529 2.25 6.16525 2.31C5.59497 2.33052 5.0343 2.46304 4.51519 2.7C3.73482 3.09268 3.09927 3.72295 2.70011 4.5C2.5051 4.875 2.3851 5.355 2.3101 6.165C2.25009 6.99 2.25009 8.04 2.25009 9.525V14.475C2.25009 15.975 2.25009 17.025 2.3101 17.835C2.3851 18.63 2.5051 19.125 2.70011 19.485C3.09281 20.2653 3.72311 20.9009 4.50019 21.3C4.8752 21.495 5.35522 21.615 6.16525 21.69C6.99029 21.75 8.04033 21.75 9.52539 21.75H10.8754C11.1738 21.75 11.46 21.8685 11.671 22.0795C11.882 22.2905 12.0005 22.5766 12.0005 22.875C12.0005 23.1734 11.882 23.4595 11.671 23.6705C11.46 23.8815 11.1738 24 10.8754 24H9.48039C8.04033 24 6.90028 24 5.98525 23.925C5.11783 23.8871 4.26647 23.6781 3.48014 23.31C2.27845 22.6984 1.30161 21.7216 0.690029 20.52C0.319579 19.7292 0.110496 18.8725 0.075003 18C-7.26462e-08 17.1 0 15.96 0 14.52V9.48C0 8.04 -7.26462e-08 6.9 0.075003 5.985C0.150006 5.04 0.315013 4.23 0.690029 3.48C1.30161 2.27836 2.27845 1.30156 3.48014 0.69C4.23017 0.315 5.04021 0.15 5.98525 0.0749999C6.90028 -7.26432e-08 8.04033 0 9.48039 0ZM18.3308 7.455C18.5417 7.24432 18.8277 7.12599 19.1258 7.12599C19.4239 7.12599 19.7099 7.24432 19.9208 7.455L23.671 11.205C23.8817 11.4159 24 11.7019 24 12C24 12.2981 23.8817 12.5841 23.671 12.795L19.9208 16.545C19.8178 16.6555 19.6936 16.7442 19.5556 16.8057C19.4176 16.8672 19.2686 16.9002 19.1176 16.9029C18.9665 16.9056 18.8165 16.8778 18.6764 16.8212C18.5363 16.7646 18.409 16.6804 18.3022 16.5736C18.1954 16.4667 18.1111 16.3395 18.0546 16.1994C17.998 16.0593 17.9702 15.9093 17.9729 15.7582C17.9755 15.6072 18.0086 15.4582 18.0701 15.3202C18.1316 15.1822 18.2202 15.058 18.3308 14.955L20.1608 13.125H10.1254C9.82704 13.125 9.54088 13.0065 9.32989 12.7955C9.1189 12.5845 9.00037 12.2984 9.00037 12C9.00037 11.7016 9.1189 11.4155 9.32989 11.2045C9.54088 10.9935 9.82704 10.875 10.1254 10.875H20.1608L18.3308 9.045C18.1201 8.83406 18.0017 8.54813 18.0017 8.25C18.0017 7.95187 18.1201 7.66594 18.3308 7.455Z" fill="#18A0FB"/>
</g>
<defs>
<clipPath id="clip0_642_90">
<rect width="24" height="24" fill="white"/>
</clipPath>
</defs>
</svg>
