<svg width="26" height="26" viewBox="0 0 26 26" fill="none" xmlns="http://www.w3.org/2000/svg">
<g clip-path="url(#clip0_642_93)">
<path d="M24.9477 11.8859C24.8924 11.3255 24.4647 10.8751 23.9088 10.7905C23.3294 10.7008 22.5084 10.5752 22.1041 10.5133C21.8946 9.74607 21.5899 9.01054 21.1955 8.32057L22.2769 6.85116C22.6109 6.39704 22.5955 5.77487 22.2363 5.3345C21.7576 4.76229 21.2281 4.23402 20.6601 3.76306C20.2243 3.40654 19.6043 3.39154 19.1506 3.72387C18.6781 4.06996 18.009 4.56177 17.6795 4.80421C16.9892 4.40997 16.2538 4.10528 15.4866 3.89562L15.2119 2.09238C15.1273 1.53464 14.6761 1.10601 14.1107 1.04924C13.3688 0.982786 12.621 0.983499 11.8849 1.05197C11.3249 1.10856 10.8749 1.53629 10.7906 2.09148C10.7013 2.67064 10.5757 3.49133 10.5138 3.89562C9.74654 4.1051 9.01083 4.40997 8.32052 4.80421L6.85126 3.72334C6.39717 3.38862 5.77426 3.40437 5.33516 3.76381C4.76385 4.24077 4.23577 4.77035 3.763 5.33979C3.40739 5.77558 3.39164 6.39651 3.72419 6.84914C4.06987 7.32175 4.56206 7.9908 4.8045 8.32057C4.41011 9.01054 4.10542 9.74607 3.89594 10.5133L2.09196 10.7881C1.53459 10.8733 1.10611 11.3245 1.04934 11.8892C0.982698 12.6311 0.983448 13.3789 1.0523 14.1146C1.1087 14.6746 1.53605 15.1247 2.09124 15.2093C2.67021 15.2993 3.49128 15.4246 3.89594 15.4865C4.10542 16.2541 4.41011 16.9894 4.8045 17.6794L3.72307 19.1486C3.38909 19.6027 3.40446 20.2249 3.76372 20.6651C4.24162 21.2367 4.7712 21.7652 5.33993 22.2369C5.77606 22.5925 6.39642 22.6086 6.84943 22.2757C7.32185 21.93 7.99093 21.4378 8.32052 21.1954C9.01083 21.5898 9.74654 21.8945 10.5134 22.1039L10.7881 23.9079C10.873 24.4653 11.3242 24.8938 11.8889 24.9505C12.2551 24.9835 12.6224 25 12.989 25C13.3658 25 13.7419 24.9824 14.1144 24.9476C14.6747 24.8923 15.1251 24.4645 15.2094 23.9086C15.2994 23.3297 15.4247 22.5086 15.4866 22.1039C16.2534 21.8945 16.9892 21.5898 17.6791 21.1954L19.1487 22.2768C19.6032 22.6115 20.2254 22.595 20.6652 22.2362C21.2369 21.7582 21.7653 21.2287 22.2366 20.6603C22.593 20.2249 22.6091 19.6038 22.2758 19.1504C21.9301 18.678 21.4379 18.009 21.1955 17.6794C21.5899 16.9894 21.8946 16.2541 22.1041 15.4865L23.9076 15.2118C24.4651 15.1272 24.8939 14.676 24.9506 14.111C25.0173 13.3683 25.0166 12.6205 24.9477 11.8859ZM24.2039 14.0399C24.182 14.26 24.0139 14.4373 23.7949 14.4706L21.7466 14.7822C21.5965 14.8049 21.4749 14.9163 21.4386 15.0639C21.2277 15.927 20.8871 16.7492 20.4264 17.5072C20.3473 17.6372 20.3547 17.802 20.4448 17.9244C20.4448 17.9244 21.1955 18.9446 21.6712 19.5939C21.8016 19.7719 21.7957 20.0151 21.658 20.1831C21.2171 20.7149 20.7213 21.2118 20.1873 21.6579C20.0159 21.7971 19.772 21.8044 19.5933 21.6725L17.9244 20.4446C17.8022 20.3546 17.6373 20.3469 17.5073 20.4263C16.7489 20.887 15.9268 21.2276 15.064 21.4385C14.9164 21.4748 14.8051 21.5964 14.7823 21.7465C14.7823 21.7465 14.5919 22.9982 14.4682 23.7948C14.4348 24.0127 14.259 24.1797 14.0426 24.2009C13.3559 24.2653 12.6539 24.2664 11.96 24.2038C11.7399 24.1818 11.563 24.0134 11.5293 23.7951L11.2176 21.7462C11.1949 21.5964 11.0836 21.4748 10.936 21.4385C10.0732 21.2276 9.25105 20.887 8.49265 20.4263C8.43257 20.3897 8.36518 20.3718 8.29783 20.3718C8.21946 20.3718 8.14146 20.3963 8.07553 20.4446C8.07553 20.4446 7.05526 21.1954 6.40595 21.6711C6.22872 21.8003 5.98519 21.7956 5.81671 21.6579C5.28499 21.217 4.78804 20.7211 4.34197 20.1872C4.2021 20.0158 4.19587 19.7715 4.32735 19.5932L5.55525 17.9244C5.64533 17.802 5.65264 17.6372 5.57355 17.5072C5.11286 16.7492 4.77229 15.927 4.56135 15.0639C4.52508 14.9163 4.40351 14.8049 4.25336 14.7822C4.25336 14.7822 3.00164 14.5918 2.20513 14.468C1.98797 14.4347 1.8206 14.2586 1.799 14.0425C1.73454 13.3548 1.73379 12.6529 1.79608 11.9602C1.81805 11.7401 1.98651 11.5628 2.20513 11.5295L4.25373 11.2175C4.40351 11.1944 4.52508 11.0833 4.56135 10.9357C4.77229 10.0729 5.11286 9.25095 5.57355 8.49232C5.65264 8.36254 5.64533 8.19791 5.55525 8.0754C5.55525 8.0754 4.8045 7.05531 4.32881 6.40547C4.19842 6.22806 4.20464 5.98468 4.34197 5.81642C4.78365 5.28433 5.27948 4.78737 5.81269 4.34206C5.98373 4.20215 6.22797 4.19521 6.4067 4.3274L8.07553 5.55493C8.1982 5.64523 8.36263 5.65236 8.49265 5.57345C9.25105 5.11273 10.0732 4.77215 10.936 4.56087C11.0836 4.5248 11.1949 4.40337 11.2176 4.25322C11.2176 4.25322 11.4088 3.00154 11.5319 2.20499C11.5648 1.98764 11.741 1.82032 11.9574 1.79853C12.6459 1.73459 13.3479 1.73407 14.0401 1.79594C14.2601 1.81792 14.4374 1.98618 14.4707 2.20518L14.7823 4.25307C14.8051 4.40322 14.9164 4.5248 15.064 4.56087C15.9268 4.77215 16.7489 5.11273 17.5073 5.57346C17.6377 5.65254 17.8022 5.64523 17.9244 5.55493C17.9244 5.55493 18.9448 4.80421 19.5937 4.32886C19.772 4.19813 20.0148 4.20398 20.1833 4.34187C20.7143 4.78224 21.2112 5.2781 21.6576 5.81203C21.7979 5.98378 21.8041 6.22825 21.6727 6.40656L20.4448 8.0754C20.3547 8.19791 20.3473 8.36254 20.4264 8.49232C20.8871 9.25095 21.2277 10.0729 21.4386 10.9357C21.4749 11.0833 21.5965 11.1944 21.7463 11.2175C21.7463 11.2175 22.9983 11.4085 23.7949 11.5319C24.0128 11.5651 24.1798 11.7408 24.201 11.9576C24.2654 12.6448 24.2662 13.3467 24.2039 14.0399Z" fill="#18A0FB" stroke="#18A0FB"/>
<path d="M12.85 9.25C10.8651 9.25 9.25 10.8649 9.25 12.85C9.25 14.8349 10.8651 16.45 12.85 16.45C14.8349 16.45 16.45 14.8349 16.45 12.85C16.45 10.8649 14.8349 9.25 12.85 9.25ZM12.85 15.73C11.262 15.73 9.97 14.438 9.97 12.85C9.97 11.262 11.262 9.97 12.85 9.97C14.438 9.97 15.73 11.262 15.73 12.85C15.73 14.438 14.438 15.73 12.85 15.73Z" fill="#18A0FB" stroke="#18A0FB"/>
</g>
<defs>
<clipPath id="clip0_642_93">
<rect width="26" height="26" fill="white"/>
</clipPath>
</defs>
</svg>
