<svg width="55" height="55" viewBox="0 0 55 55" fill="none" xmlns="http://www.w3.org/2000/svg">
<circle cx="28.0625" cy="18.0625" r="13.0625" stroke="#CCC" stroke-width="2"/>
<path d="M48.9999 47.0659C48.8358 47.1678 48.5478 47.2994 48.1002 47.444C47.1507 47.7508 45.712 48.0447 43.8384 48.298C40.106 48.8025 34.8096 49.125 28.625 49.125C22.4412 49.125 16.5751 48.8027 12.2695 48.2958C10.1104 48.0417 8.37792 47.7449 7.20306 47.4298C6.62198 47.2739 6.22997 47.127 6.00019 47.005C6.00507 43.4993 6.12314 40.8751 8.4525 38.9349C9.6861 37.9074 11.6198 37.0082 14.6949 36.3715C17.7663 35.7356 21.9102 35.375 27.5 35.375C33.0898 35.375 37.2337 35.7356 40.3051 36.3715C43.3802 37.0082 45.3139 37.9074 46.5475 38.9349C48.8903 40.8864 48.9962 43.5297 48.9999 47.0659ZM49.1166 46.9798C49.1172 46.9798 49.1132 46.9845 49.1025 46.9936C49.1106 46.9843 49.1159 46.9797 49.1166 46.9798Z" stroke="#CCC" stroke-width="2"/>
<path d="M45.5 27.5V24H46.5V27.5H50V28.5H46.5V32H45.5V28.5H42V27.5H45.5Z" stroke="#CCC"/>
</svg>
