<svg width="25" height="25" viewBox="0 0 25 25" fill="none" xmlns="http://www.w3.org/2000/svg">
<circle cx="12.5" cy="12.5" r="12.5" fill="#4CD649"/>
<path fill-rule="evenodd" clip-rule="evenodd" d="M4.27391 14.914C4.09909 14.7408 4.00025 14.5051 3.99915 14.259C3.99861 14.1371 4.02208 14.0163 4.06821 13.9035C4.11435 13.7907 4.18226 13.6881 4.26805 13.6015C4.35385 13.515 4.45585 13.4461 4.56824 13.399C4.68064 13.3519 4.80121 13.3273 4.92309 13.3268C5.16923 13.3257 5.40573 13.4224 5.58055 13.5957C6.88133 14.8921 8.14842 16.1826 9.46678 17.4702L8.916 18.122L8.86473 18.1762C8.69085 18.35 8.45507 18.4477 8.20921 18.4477C7.96336 18.4477 7.72758 18.35 7.5537 18.1762L4.27391 14.914ZM8.39452 14.3794C8.30201 14.2958 8.22729 14.1945 8.17484 14.0814C8.12238 13.9683 8.09326 13.8458 8.08922 13.7213C8.08518 13.5967 8.1063 13.4726 8.15131 13.3563C8.19633 13.2401 8.26432 13.1341 8.35122 13.0448C8.43812 12.9554 8.54215 12.8845 8.65708 12.8362C8.77201 12.788 8.89549 12.7634 9.02014 12.764C9.14478 12.7645 9.26804 12.7902 9.38253 12.8395C9.49703 12.8888 9.60042 12.9606 9.68651 13.0508L13.3486 16.622L20.3535 8.33542C21.1401 7.40524 22.5508 8.60495 21.7685 9.53366L14.1177 18.5791L14.0737 18.6274C13.9022 18.8036 13.6677 18.9044 13.4218 18.9077C13.176 18.911 12.9389 18.8165 12.7627 18.645L8.39452 14.3794ZM12.6074 13.7627L12.562 13.811L11.2334 12.5146L14.4985 8.64743C15.2851 7.71726 16.6958 8.9155 15.915 9.84567L12.6045 13.7627H12.6074Z" fill="white"/>
</svg>
