<svg width="25" height="25" viewBox="0 0 25 25" fill="none" xmlns="http://www.w3.org/2000/svg">
<circle cx="12.5" cy="12.5" r="12.5" fill="#4CD649"/>
<path fill-rule="evenodd" clip-rule="evenodd" d="M6.28582 13.3799C6.19935 13.2963 6.12952 13.195 6.08049 13.0819C6.03146 12.9688 6.00424 12.8463 6.00047 12.7218C5.99669 12.5972 6.01643 12.4731 6.0585 12.3568C6.10058 12.2406 6.16413 12.1346 6.24535 12.0453C6.32657 11.9559 6.4238 11.885 6.53122 11.8367C6.63865 11.7885 6.75406 11.7639 6.87056 11.7645C6.98707 11.765 7.10227 11.7907 7.20928 11.84C7.3163 11.8893 7.41293 11.9611 7.4934 12.0513L10.9163 15.6225L17.4635 7.33592C18.1987 6.40574 19.5172 7.60545 18.7861 8.53416L11.6351 17.5796L11.594 17.6279C11.4336 17.8041 11.2145 17.9049 10.9847 17.9082C10.7549 17.9115 10.5333 17.817 10.3686 17.6455L6.28582 13.3799Z" fill="white"/>
</svg>
