<svg width="25" height="25" viewBox="0 0 25 25" fill="none" xmlns="http://www.w3.org/2000/svg">
<circle cx="12.5" cy="12.5" r="12.5" fill="#E64646"/>
<path d="M19.2928 17.8786L7.12141 5.7072C6.73089 5.31668 6.09772 5.31668 5.7072 5.7072C5.31667 6.09772 5.31667 6.73089 5.7072 7.12141L17.8786 19.2929C18.2692 19.6834 18.9023 19.6834 19.2928 19.2929C19.6834 18.9023 19.6834 18.2692 19.2928 17.8786Z" fill="#313131"/>
<path d="M19.2928 7.12136L7.12141 19.2928C6.73089 19.6833 6.09772 19.6833 5.7072 19.2928C5.31667 18.9023 5.31667 18.2691 5.7072 17.8786L17.8786 5.70715C18.2692 5.31662 18.9023 5.31662 19.2928 5.70715C19.6834 6.09767 19.6834 6.73084 19.2928 7.12136Z" fill="#313131"/>
</svg>
