<svg width="55" height="55" viewBox="0 0 55 55" fill="none" xmlns="http://www.w3.org/2000/svg">
<path d="M27.5 0C22.061 0 16.7442 1.61285 12.2218 4.63458C7.69948 7.65632 4.17473 11.9512 2.09332 16.9762C0.0119154 22.0012 -0.532676 27.5305 0.528417 32.865C1.58951 38.1995 4.20863 43.0995 8.05457 46.9454C11.9005 50.7914 16.8005 53.4105 22.135 54.4716C27.4695 55.5327 32.9988 54.9881 38.0238 52.9067C43.0488 50.8253 47.3437 47.3005 50.3654 42.7782C53.3871 38.2558 55 32.939 55 27.5C54.9921 20.209 52.0923 13.2188 46.9367 8.06327C41.7812 2.90773 34.791 0.00788581 27.5 0ZM27.5 50.4167C22.9675 50.4167 18.5368 49.0726 14.7682 46.5545C10.9996 44.0364 8.06228 40.4573 6.32777 36.2698C4.59326 32.0823 4.13944 27.4746 5.02368 23.0292C5.90793 18.5838 8.09053 14.5004 11.2955 11.2955C14.5004 8.09051 18.5838 5.90791 23.0292 5.02367C27.4746 4.13942 32.0824 4.59325 36.2698 6.32776C40.4573 8.06227 44.0364 10.9996 46.5545 14.7682C49.0726 18.5368 50.4167 22.9675 50.4167 27.5C50.41 33.5758 47.9934 39.4009 43.6972 43.6971C39.4009 47.9934 33.5758 50.41 27.5 50.4167Z" fill="#CCC"/>
<path d="M27.0417 20.7778C26.8891 20.7777 25.8386 20.8378 25.2276 21.449C24.922 21.7031 24.7503 22.1432 24.7502 22.4255C24.7502 22.959 24.75 22.8085 24.75 23.4163C24.75 24.0241 24.75 23.6361 24.75 24.1216C24.75 24.6072 24.75 24.4551 24.75 24.8552V25.3611V41.4028C24.75 42.0106 24.9914 42.5935 25.4212 43.0232C25.851 43.453 26.4339 43.6944 27.0417 43.6944C27.6495 43.6944 28.2323 43.453 28.6621 43.0232C29.0919 42.5935 29.3333 42.0106 29.3333 41.4028V23.0694C29.3333 22.4617 29.0919 21.8788 28.6621 21.449C28.2323 21.0192 27.6495 20.7778 27.0417 20.7778Z" fill="#CCC"/>
<path d="M27.546 11.4583H27.5231C26.9133 11.4613 26.3296 11.7061 25.8999 12.1389C25.4703 12.5718 25.2299 13.1573 25.2315 13.7671C25.233 14.377 25.4763 14.9613 25.908 15.392C26.3398 15.8227 26.9247 16.0645 27.5346 16.0645C28.1444 16.0645 28.7293 15.8227 29.1611 15.392C29.5929 14.9613 29.8362 14.377 29.8377 13.7671C29.8392 13.1573 29.5988 12.5718 29.1692 12.1389C28.7396 11.7061 28.1559 11.4613 27.546 11.4583Z" fill="#CCC"/>
</svg>
