<svg width="37" height="37" viewBox="0 0 37 37" fill="none" xmlns="http://www.w3.org/2000/svg">
<path d="M7.35134 11H34.1081C34.6005 11 35 10.3279 35 9.5C35 8.67195 34.6004 8 34.1081 8H7.35134C6.85907 8 6.45947 8.67195 6.45947 9.5C6.45947 10.3281 6.85907 11 7.35134 11Z" fill="#5F6368"/>
<path d="M7.35134 20H34.1081C34.6005 20 35 19.3279 35 18.5C35 17.6719 34.6004 17 34.1081 17H7.35134C6.85907 17 6.45947 17.6719 6.45947 18.5C6.45947 19.3281 6.85907 20 7.35134 20Z" fill="#5F6368"/>
<path d="M34.1081 26H7.35134C6.859 26 6.45947 26.6721 6.45947 27.5C6.45947 28.3281 6.85907 29 7.35134 29H34.1081C34.6005 29 35 28.3279 35 27.5C35.0001 26.6719 34.6005 26 34.1081 26Z" fill="#5F6368"/>
<path d="M4 17H3C2.44772 17 2 17.4477 2 18V19C2 19.5523 2.44772 20 3 20H4C4.55228 20 5 19.5523 5 19V18C5 17.4477 4.55228 17 4 17Z" fill="#5F6368"/>
<path d="M4 26H3C2.44772 26 2 26.4477 2 27V28C2 28.5523 2.44772 29 3 29H4C4.55228 29 5 28.5523 5 28V27C5 26.4477 4.55228 26 4 26Z" fill="#5F6368"/>
<path d="M4 8H3C2.44772 8 2 8.44772 2 9V10C2 10.5523 2.44772 11 3 11H4C4.55228 11 5 10.5523 5 10V9C5 8.44772 4.55228 8 4 8Z" fill="#5F6368"/>
</svg>
