<svg width="55" height="42" viewBox="0 0 55 42" fill="none" xmlns="http://www.w3.org/2000/svg">
<path d="M3.58696 0C1.60935 0 0 1.32673 0 2.95705V8.87115V11.8282H55V8.87115V6.89979C55 5.26946 53.3907 3.94274 51.413 3.94274L19.1841 3.94851C18.8506 3.84896 18.1606 2.94344 17.79 2.45651C16.8729 1.25003 15.9225 0 14.3478 0H3.58696ZM1.19565 10.8425C0.535652 10.8425 0 11.2841 0 11.8282V38.4417C0 40.0749 1.60576 41.3987 3.58696 41.3987H51.413C53.3942 41.3987 55 40.0749 55 38.4417V11.8282C55 11.2841 54.4643 10.8425 53.8043 10.8425H1.19565Z" fill="#CCC"/>
<path d="M15 22.9179L36.952 22.9179L31.9406 28.7008L33.0664 30L40 21.9991L33.0664 14L31.9406 15.2992L36.952 21.0803H25.976L15 21.0803V22.9179Z" fill="#323337"/>
</svg>
