<svg width="140" height="140" viewBox="0 0 140 140" fill="none" xmlns="http://www.w3.org/2000/svg">
<path d="M122.5 39.375H17.5V100.625H122.5V39.375ZM117.98 95.9593H22.0191V90.8989H27.5466L51.7308 65.9306L67.9608 82.6868L74.8119 73.2562L91.8908 90.8888L117.981 91.1698V95.9593H117.98ZM117.98 86.5041L93.7821 86.2432L74.3226 66.1528L67.4715 75.5835L51.7303 59.332L25.6743 86.2327H22.0191V44.0407H117.98V86.5041Z" fill="#C5C5C5"/>
<path d="M104.98 69.9594C109.794 69.9594 113.71 66.0436 113.71 61.2295C113.71 56.4159 109.794 52.5 104.98 52.5C100.166 52.5 96.25 56.4159 96.25 61.2295C96.25 66.0431 100.166 69.9594 104.98 69.9594ZM104.98 56.8303C107.406 56.8303 109.38 58.8036 109.38 61.2295C109.38 63.6554 107.406 65.6291 104.98 65.6291C102.554 65.6291 100.58 63.6554 100.58 61.2295C100.58 58.8036 102.554 56.8303 104.98 56.8303Z" fill="#C5C5C5"/>
<path d="M0 19.7317V120.268H140V19.7317H0ZM135.67 115.938H4.33029V24.062H135.67V115.938Z" fill="#C5C5C5"/>
</svg>
