<svg width="51" height="49" viewBox="0 0 51 49" fill="none" xmlns="http://www.w3.org/2000/svg">
<path d="M4.52431 10.7189H45.5819C46.3374 10.7189 46.9504 10.0339 46.9504 9.19004C46.9504 8.34603 46.3373 7.66113 45.5819 7.66113H4.52431C3.76894 7.66113 3.15576 8.34603 3.15576 9.19004C3.15576 10.0341 3.76894 10.7189 4.52431 10.7189Z" fill="#5F6368"/>
<path d="M45.5819 38.2401H4.52431C3.76882 38.2401 3.15576 38.9251 3.15576 39.769C3.15576 40.613 3.76894 41.2979 4.52431 41.2979H45.5819C46.3374 41.2979 46.9504 40.6129 46.9504 39.769C46.9506 38.925 46.3374 38.2401 45.5819 38.2401Z" fill="#5F6368"/>
<path d="M42.1017 19.5869C39.5535 19.5869 37.4308 21.3455 36.8204 23.7151H5.14992C4.39443 23.7151 3.78137 24.3316 3.78137 25.0911C3.78137 25.8506 4.39455 26.4671 5.14992 26.4671H36.8204C37.4308 28.8367 39.5535 30.5953 42.1017 30.5953C45.1249 30.5953 47.5761 28.1308 47.5761 25.0911C47.5761 22.0514 45.1249 19.5869 42.1017 19.5869ZM42.1017 27.8432C40.5895 27.8432 39.3645 26.6102 39.3645 25.091C39.3645 23.5719 40.5894 22.3388 42.1017 22.3388C43.6141 22.3388 44.839 23.5704 44.839 25.091C44.839 26.6102 43.6141 27.8432 42.1017 27.8432Z" fill="#5F6368"/>
</svg>
