<svg width="26" height="26" viewBox="0 0 26 26" fill="none" xmlns="http://www.w3.org/2000/svg">
<g clip-path="url(#clip0_642_89)">
<path d="M25 12.1429C25 6.14286 19.6274 1 13 1C6.37257 1 1 6.37257 1 13C1 19.6274 5.28572 25 13 25C19.8571 25 10.4286 18.1429 18.1429 18.1429C25 18.1429 25 12.1429 25 12.1429Z" stroke="#18A0FB" stroke-width="2"/>
<path d="M21 13.2324C21 14.337 20.1046 15.2324 19 15.2324C17.8954 15.2324 17 14.337 17 13.2324C17 12.1279 17.8954 11.2324 19 11.2324C20.1046 11.2324 21 12.1279 21 13.2324Z" fill="#18A0FB"/>
<path d="M8 13.5C8 14.6046 7.10457 15.5 6 15.5C4.89543 15.5 4 14.6046 4 13.5C4 12.3954 4.89543 11.5 6 11.5C7.10457 11.5 8 12.3954 8 13.5Z" fill="#18A0FB"/>
<path d="M11.5 7.5C11.5 8.60457 10.6046 9.5 9.5 9.5C8.39543 9.5 7.5 8.60457 7.5 7.5C7.5 6.39543 8.39543 5.5 9.5 5.5C10.6046 5.5 11.5 6.39543 11.5 7.5Z" fill="#18A0FB"/>
<path d="M18.5 7C18.5 8.10457 17.6046 9 16.5 9C15.3954 9 14.5 8.10457 14.5 7C14.5 5.89543 15.3954 5 16.5 5C17.6046 5 18.5 5.89543 18.5 7Z" fill="#18A0FB"/>
</g>
<defs>
<clipPath id="clip0_642_89">
<rect width="26" height="26" fill="white"/>
</clipPath>
</defs>
</svg>
