<svg width="140" height="140" viewBox="0 0 140 140" fill="none" xmlns="http://www.w3.org/2000/svg">
<path d="M20 6V134.8H120.8V41.2625L120.013 40.3875L86.4125 6.7875L85.5375 6H20ZM25.6 11.6H81.6V45.2H115.2V129.2H25.6V11.6ZM87.2 15.625L111.175 39.6H87.2V15.625Z" fill="#C5C5C5"/>
<path d="M42 73.84H48.5319V92.6098H52.8207V73.84H59.5767V70H42V73.84Z" fill="#C5C5C5"/>
<path d="M80.7957 70H75.7266L72.7119 75.0514C72.1827 75.9352 71.7429 76.7203 71.3886 77.4022L70.9758 78.1828C70.8861 78.3577 70.7469 78.6226 70.5585 78.9769H70.4958L70.083 78.1828L69.6657 77.3842C69.2484 76.6126 68.7999 75.8275 68.3244 75.0334L65.3097 70H60.1911L67.0818 80.9461L59.6619 92.6098H64.83L68.0913 87.1771C68.8224 85.975 69.4731 84.8308 70.0473 83.7454L70.5273 82.8526H70.5945L71.0745 83.7319L71.5365 84.6247C71.994 85.486 72.4695 86.3383 72.963 87.1774L76.2108 92.6101H81.2442L74.0037 80.9464L80.7957 70Z" fill="#C5C5C5"/>
<path d="M81.3115 73.84H87.8389V92.6098H92.1274V73.84H98.8924V70H81.3115V73.84Z" fill="#C5C5C5"/>
</svg>
