<svg width="140" height="140" viewBox="0 0 140 140" fill="none" xmlns="http://www.w3.org/2000/svg">
<path d="M111.128 79.5V50.2479V33.1114L81.1425 5H10V135.022H111.128V116.244V105.409V95.5V79.5ZM105 105.409H32V61.0831H105V105.409Z" fill="#C5C5C5"/>
<path d="M42.2343 79.7746L47.8494 91.1127H50.1506L55.7657 79.7746V95H60V72H55.4895L48.9847 85.0873L42.5411 72H38V95H42.2343V79.7746Z" fill="#C5C5C5"/>
<path d="M69.1898 87.2901H74.2903C75.2819 87.2901 76.1927 87.0744 77.0228 86.6423C77.8525 86.2105 78.5608 85.638 79.148 84.9254C79.7349 84.2127 80.1903 83.398 80.5142 82.4796C80.8378 81.5619 81 80.6169 81 79.6451C81 78.7167 80.8275 77.7934 80.4839 76.8754C80.1392 75.9576 79.6641 75.1371 79.0569 74.4134C78.4497 73.69 77.7259 73.1069 76.8861 72.6641C76.0461 72.2216 75.1301 72 74.1385 72H65V95H69.1898V87.2901V87.2901ZM69.1898 75.9197H73.8653C74.2296 75.9197 74.5888 76.0007 74.9431 76.1627C75.2971 76.3246 75.6058 76.5676 75.8691 76.8915C76.132 77.2155 76.3441 77.6097 76.5066 78.0739C76.6684 78.5385 76.7495 79.062 76.7495 79.6451C76.7495 80.7899 76.4915 81.697 75.9753 82.3662C75.4592 83.0358 74.8165 83.3704 74.0471 83.3704H69.1894V75.9197H69.1898Z" fill="#C5C5C5"/>
<path d="M92.0895 95H96.2607V90.0903H99V86.1361H96.2607V72H93.428L83 86.1691V90.0903H92.0895V95V95ZM87.1709 86.1361L92.5561 78.6891V86.1361H87.1709Z" fill="#C5C5C5"/>
</svg>
