<svg width="55" height="55" viewBox="0 0 55 55" fill="none" xmlns="http://www.w3.org/2000/svg">
<path d="M13.5 47.5455V48.0455H14H41H41.5V47.5455V11.9091V11.4091H41H14H13.5V11.9091V47.5455ZM38.245 3.5H38.25V7.45455V7.95455H38.75H49.5V11.4091H45.5H45V11.9091V47.5455C45 49.7234 43.2127 51.5 41 51.5H14C11.7873 51.5 10 49.7234 10 47.5455V11.9091V11.4091H9.5H5.5V7.95455H16.25H16.75V7.45455V3.50003L17.5685 3.50006L20.75 3.50012L34.25 3.5H34.2645H34.2791H34.2936H34.3081H34.3226H34.3371H34.3516H34.3661H34.3806H34.395H34.4094H34.4239H34.4383H34.4527H34.4671H34.4815H34.4958H34.5102H34.5245H34.5389H34.5532H34.5675H34.5818H34.5961H34.6103H34.6246H34.6388H34.6531H34.6673H34.6815H34.6957H34.7099H34.7241H34.7382H34.7524H34.7665H34.7806H34.7947H34.8088H34.8229H34.8369H34.851H34.865H34.8791H34.8931H34.9071H34.921H34.935H34.949H34.9629H34.9768H34.9907H35.0046H35.0185H35.0324H35.0462H35.0601H35.0739H35.0877H35.1015H35.1153H35.1291H35.1428H35.1565H35.1703H35.184H35.1977H35.2113H35.225H35.2386H35.2523H35.2659H35.2795H35.293H35.3066H35.3202H35.3337H35.3472H35.3607H35.3742H35.3877H35.4011H35.4145H35.428H35.4414H35.4548H35.4681H35.4815H35.4948H35.5081H35.5214H35.5347H35.548H35.5612H35.5745H35.5877H35.6009H35.6141H35.6272H35.6404H35.6535H35.6666H35.6797H35.6928H35.7058H35.7189H35.7319H35.7449H35.7579H35.7709H35.7838H35.7967H35.8096H35.8225H35.8354H35.8483H35.8611H35.8739H35.8867H35.8995H35.9123H35.925H35.9377H35.9504H35.9631H35.9758H35.9884H36.0011H36.0137H36.0263H36.0388H36.0514H36.0639H36.0764H36.0889H36.1014H36.1138H36.1262H36.1386H36.151H36.1634H36.1757H36.1881H36.2004H36.2127H36.2249H36.2372H36.2494H36.2616H36.2738H36.2859H36.2981H36.3102H36.3223H36.3344H36.3464H36.3584H36.3704H36.3824H36.3944H36.4063H36.4183H36.4302H36.442H36.4539H36.4657H36.4775H36.4893H36.5011H36.5128H36.5246H36.5363H36.5479H36.5596H36.5712H36.5828H36.5944H36.606H36.6175H36.6291H36.6405H36.652H36.6635H36.6749H36.6863H36.6977H36.709H36.7203H36.7317H36.7429H36.7542H36.7654H36.7766H36.7878H36.799H36.8101H36.8212H36.8323H36.8434H36.8544H36.8655H36.8764H36.8874H36.8984H36.9093H36.9202H36.931H36.9419H36.9527H36.9635H36.9742H36.985H36.9957H37.0064H37.0171H37.0277H37.0383H37.0489H37.0595H37.07H37.0805H37.091H37.1015H37.1119H37.1223H37.1327H37.143H37.1534H37.1637H37.1739H37.1842H37.1944H37.2046H37.2148H37.2249H37.235H37.2451H37.2552H37.2652H37.2752H37.2852H37.2951H37.305H37.3149H37.3248H37.3346H37.3445H37.3542H37.364H37.3737H37.3834H37.3931H37.4027H37.4124H37.4219H37.4315H37.441H37.4505H37.46H37.4695H37.4789H37.4883H37.4976H37.5069H37.5162H37.5255H37.5348H37.544H37.5532H37.5623H37.5714H37.5805H37.5896H37.5986H37.6076H37.6166H37.6256H37.6345H37.6434H37.6522H37.6611H37.6699H37.6786H37.6874H37.6961H37.7047H37.7134H37.722H37.7306H37.7391H37.7477H37.7562H37.7646H37.773H37.7814H37.7898H37.7982H37.8065H37.8147H37.823H37.8312H37.8394H37.8475H37.8556H37.8637H37.8718H37.8798H37.8878H37.8957H37.9037H37.9116H37.9194H37.9272H37.935H37.9428H37.9505H37.9582H37.9659H37.9735H37.9811H37.9887H37.9962H38.0037H38.0112H38.0186H38.026H38.0334H38.0407H38.048H38.0553H38.0626H38.0698H38.0769H38.0841H38.0912H38.0982H38.1053H38.1123H38.1192H38.1261H38.133H38.1399H38.1467H38.1535H38.1603H38.167H38.1737H38.1803H38.187H38.1936H38.2001H38.2066H38.2131H38.2195H38.2259H38.2323H38.2387H38.245ZM34.75 6.34091V5.84091H34.25H20.75H20.25V6.34091V7.45455V7.95455H20.75H34.25H34.75V7.45455V6.34091ZM30.25 16.8636H33.75V42.5909H30.25V16.8636ZM21.25 16.8636H24.75V42.5909H21.25V16.8636Z" fill="#CCC" />
</svg>
