<svg width="16" height="16" viewBox="0 0 16 16" fill="#C5C5C5" xmlns="http://www.w3.org/2000/svg">
<path fill-rule="evenodd" clip-rule="evenodd" d="M0.269582 0.292951C0.44242 0.120585 0.676709 0.0237692 0.920986 0.0237692C1.16526 0.0237692 1.39955 0.120585 1.57239 0.292951L7.9881 6.69913L14.4038 0.292951C14.4882 0.20252 14.59 0.129988 14.703 0.0796808C14.8161 0.029374 14.9382 0.00232378 15.0619 0.000143246C15.1857 -0.00203729 15.3087 0.0206965 15.4234 0.0669892C15.5382 0.113282 15.6425 0.182185 15.73 0.269587C15.8175 0.356989 15.8866 0.4611 15.9329 0.57571C15.9793 0.690319 16.002 0.813079 15.9999 0.936665C15.9977 1.06025 15.9706 1.18213 15.9202 1.29504C15.8698 1.40794 15.7972 1.50956 15.7066 1.59382L9.29091 8L15.7066 14.4062C15.7972 14.4904 15.8698 14.5921 15.9202 14.705C15.9706 14.8179 15.9977 14.9398 15.9999 15.0633C16.002 15.1869 15.9793 15.3097 15.9329 15.4243C15.8866 15.5389 15.8175 15.643 15.73 15.7304C15.6425 15.8178 15.5382 15.8867 15.4234 15.933C15.3087 15.9793 15.1857 16.002 15.0619 15.9999C14.9382 15.9977 14.8161 15.9706 14.703 15.9203C14.59 15.87 14.4882 15.7975 14.4038 15.7071L7.9881 9.30087L1.57239 15.7071C1.39765 15.8696 1.16653 15.9581 0.927718 15.9539C0.68891 15.9497 0.46106 15.8531 0.292171 15.6845C0.123281 15.5159 0.0265396 15.2883 0.0223261 15.0499C0.0181126 14.8114 0.106756 14.5807 0.269582 14.4062L6.68529 8L0.269582 1.59382C0.09696 1.42124 0 1.1873 0 0.943387C0 0.699473 0.09696 0.465532 0.269582 0.292951Z" fill="#C5C5C5"/>
</svg>
