<svg width="32" height="32" viewBox="0 0 32 32" fill="none" xmlns="http://www.w3.org/2000/svg">
<path d="M31.9303 14.5145C31.8565 13.7674 31.2862 13.1668 30.545 13.054C29.7725 12.9344 28.6778 12.7669 28.1388 12.6844C27.8595 11.6614 27.4532 10.6807 26.9273 9.76076L28.3692 7.80155C28.8145 7.19605 28.794 6.36649 28.315 5.77934C27.6768 5.01638 26.9708 4.31203 26.2135 3.68407C25.6324 3.20872 24.8057 3.18872 24.2007 3.63182C23.5708 4.09328 22.6787 4.74903 22.2393 5.07228C21.3189 4.54663 20.3384 4.14038 19.3155 3.86082L18.9493 1.45651C18.8365 0.712853 18.2349 0.14135 17.4809 0.065649C16.4917 -0.0229516 15.4946 -0.0220016 14.5132 0.069299C13.7666 0.144749 13.1665 0.715053 13.0542 1.45531C12.935 2.22751 12.7676 3.32177 12.685 3.86082C11.6621 4.14013 10.6811 4.54663 9.7607 5.07228L7.80168 3.63112C7.19623 3.18482 6.36567 3.20582 5.78022 3.68507C5.01846 4.32103 4.31436 5.02713 3.68401 5.78639C3.20985 6.36744 3.18885 7.19535 3.63226 7.79885C4.09316 8.429 4.74941 9.32106 5.07267 9.76076C4.54681 10.6807 4.14056 11.6614 3.86126 12.6844L1.45594 13.0508C0.712786 13.1644 0.141482 13.7659 0.0657819 14.5189C-0.0230687 15.5082 -0.0220687 16.5052 0.0697319 17.4862C0.144932 18.2328 0.714736 18.8329 1.45499 18.9457C2.22695 19.0658 3.3217 19.2328 3.86126 19.3153C4.14056 20.3387 4.54681 21.3192 5.07267 22.2391L3.63076 24.1982C3.18545 24.8036 3.20595 25.6332 3.68496 26.2201C4.32216 26.9823 5.02826 27.6869 5.78657 28.3158C6.36807 28.7899 7.19523 28.8114 7.79923 28.3676C8.42914 27.9066 9.32124 27.2504 9.7607 26.9272C10.6811 27.453 11.6621 27.8593 12.6846 28.1386L13.0508 30.5439C13.164 31.2871 13.7656 31.8584 14.5185 31.934C15.0068 31.978 15.4966 32 15.9853 32C16.4878 32 16.9892 31.9765 17.4858 31.9301C18.2329 31.8564 18.8335 31.2861 18.9458 30.5449C19.0659 29.7729 19.2329 28.6781 19.3155 28.1386C20.3379 27.8593 21.3189 27.453 22.2388 26.9272L24.1983 28.369C24.8042 28.8153 25.6339 28.7934 26.2203 28.3149C26.9825 27.6776 27.6871 26.9716 28.3155 26.2138C28.7906 25.6332 28.8121 24.8051 28.3678 24.2006C27.9068 23.5707 27.2506 22.6786 26.9273 22.2391C27.4532 21.3192 27.8595 20.3387 28.1388 19.3153L30.5435 18.9491C31.2867 18.8363 31.8585 18.2347 31.9342 17.4813C32.023 16.4911 32.0221 15.494 31.9303 14.5145ZM30.9386 17.3866C30.9093 17.68 30.6851 17.9164 30.3931 17.9608L27.6622 18.3763C27.462 18.4066 27.2999 18.555 27.2515 18.7518C26.9703 19.9027 26.5162 20.9989 25.9019 22.0096C25.7965 22.183 25.8062 22.4027 25.9264 22.5658C25.9264 22.5658 26.9273 23.9262 27.5616 24.7919C27.7354 25.0292 27.7276 25.3534 27.544 25.5775C26.9561 26.2865 26.295 26.9491 25.5831 27.5439C25.3545 27.7294 25.0293 27.7392 24.791 27.5634L22.5659 25.9262C22.4029 25.8061 22.1831 25.7958 22.0098 25.9018C20.9986 26.516 19.9024 26.9701 18.752 27.2514C18.5552 27.2997 18.4068 27.4618 18.3765 27.662C18.3765 27.662 18.1226 29.331 17.9576 30.393C17.9131 30.6836 17.6787 30.9062 17.3901 30.9345C16.4746 31.0205 15.5386 31.0219 14.6133 30.9384C14.3198 30.9091 14.084 30.6845 14.039 30.3935L13.6235 27.6615C13.5932 27.4618 13.4448 27.2997 13.248 27.2514C12.0976 26.9701 11.0014 26.516 9.9902 25.9018C9.9101 25.8529 9.82025 25.829 9.73045 25.829C9.62594 25.829 9.52194 25.8617 9.43404 25.9262C9.43404 25.9262 8.07369 26.9272 7.20793 27.5614C6.97163 27.7338 6.64693 27.7274 6.42227 27.5439C5.71332 26.956 5.05072 26.2948 4.45596 25.5829C4.26946 25.3544 4.26116 25.0287 4.43646 24.7909L6.07367 22.5658C6.19377 22.4027 6.20352 22.183 6.09807 22.0096C5.48382 20.9989 5.02971 19.9027 4.74846 18.7518C4.70011 18.555 4.53801 18.4066 4.33781 18.3763C4.33781 18.3763 2.66885 18.1224 1.60684 17.9574C1.31729 17.9129 1.09414 17.6781 1.06534 17.39C0.979388 16.473 0.978388 15.5372 1.06144 14.6136C1.09074 14.3201 1.31534 14.0838 1.60684 14.0394L4.33831 13.6233C4.53801 13.5926 4.70011 13.4444 4.74846 13.2476C5.02971 12.0972 5.48382 11.0013 6.09807 9.98977C6.20352 9.81671 6.19377 9.59721 6.07367 9.43386C6.07367 9.43386 5.07267 8.07375 4.43841 7.2073C4.26456 6.97075 4.27286 6.64624 4.45596 6.42189C5.04487 5.71244 5.70597 5.04983 6.41692 4.45608C6.64498 4.26953 6.97063 4.26028 7.20893 4.43653L9.43404 6.07324C9.59759 6.19364 9.81685 6.20314 9.9902 6.09794C11.0014 5.48363 12.0976 5.02953 13.248 4.74783C13.4448 4.69973 13.5932 4.53783 13.6235 4.33763C13.6235 4.33763 13.8784 2.66872 14.0425 1.60666C14.0864 1.31686 14.3213 1.09376 14.6098 1.06471C15.5278 0.979455 16.4638 0.978755 17.3867 1.06126C17.6802 1.09056 17.9165 1.31491 17.961 1.60691L18.3765 4.33743C18.4068 4.53763 18.5552 4.69973 18.752 4.74783C19.9024 5.02953 20.9986 5.48364 22.0098 6.09794C22.1836 6.20339 22.4029 6.19364 22.5659 6.07324C22.5659 6.07324 23.9263 5.07228 24.7915 4.43848C25.0293 4.26418 25.3531 4.27198 25.5777 4.45583C26.2857 5.04298 26.9483 5.70414 27.5435 6.41604C27.7306 6.64504 27.7389 6.971 27.5636 7.20875L25.9264 9.43386C25.8062 9.59721 25.7965 9.81671 25.9019 9.98977C26.5162 11.0013 26.9703 12.0972 27.2515 13.2476C27.2999 13.4444 27.462 13.5926 27.6617 13.6233C27.6617 13.6233 29.3311 13.878 30.3931 14.0425C30.6837 14.0867 30.9063 14.3211 30.9347 14.6102C31.0206 15.5265 31.0216 16.4623 30.9386 17.3866Z" fill="#C5C5C5"/>
<path d="M15.8 11C13.1534 11 11 13.1532 11 15.8C11 18.4465 13.1534 20.6 15.8 20.6C18.4466 20.6 20.6 18.4465 20.6 15.8C20.6 13.1532 18.4466 11 15.8 11ZM15.8 19.64C13.6827 19.64 11.96 17.9173 11.96 15.8C11.96 13.6826 13.6827 11.96 15.8 11.96C17.9173 11.96 19.64 13.6826 19.64 15.8C19.64 17.9173 17.9173 19.64 15.8 19.64Z" fill="#C5C5C5"/>
</svg>
