<svg width="60" height="62" viewBox="0 0 60 62" fill="none" xmlns="http://www.w3.org/2000/svg">
<path d="M27.2079 0.126567C26.6642 0.220312 25.4268 0.557795 24.4893 0.876528C19.0896 2.67644 15.1148 6.85747 13.3899 12.5759C12.9212 14.0946 12.8649 14.5446 12.8649 17.1694C12.8649 19.7756 12.9212 20.2443 13.3711 21.688C14.3836 24.9878 15.621 27.1252 17.8522 29.3563C24.5643 36.0685 35.4388 36.0685 42.1697 29.3376C48.9006 22.6067 48.9006 11.7322 42.1884 5.02007C38.9636 1.79523 35.1388 0.145316 30.564 0.0140727C29.2703 -0.0234254 27.7704 0.0140727 27.2079 0.126567ZM32.5889 4.72008C36.47 5.50754 39.8448 8.1699 41.5509 11.826C43.5383 16.1007 42.9759 21.1442 40.051 24.9878C37.8199 27.9501 33.7888 29.9188 30.0015 29.9188C26.2142 29.9188 22.1832 27.9501 19.9521 24.9878C17.6459 21.9504 16.8022 18.2381 17.5522 14.5821C18.9584 7.71993 25.6705 3.3139 32.5889 4.72008Z" fill="#C5C5C5"/>
<path d="M26.2517 40.6245C15.921 41.7869 6.52775 47.6929 0.996781 56.5049C-0.0719141 58.2111 -0.221906 58.9423 0.265569 59.8985C0.659298 60.6484 1.37176 61.0422 2.29046 61.0422C3.34041 61.0422 3.77164 60.7234 4.61535 59.2985C6.56525 56.0549 9.65884 52.7176 12.7712 50.4865C14.8336 49.0053 18.7521 47.0179 20.9458 46.3429C24.3768 45.2742 26.0642 45.0305 30.0015 45.0305C33.0576 45.0305 33.9763 45.1055 35.5888 45.443C40.726 46.5492 45.057 48.6116 48.9756 51.7989C51.2817 53.6738 53.9816 56.7861 55.3877 59.2048C56.1564 60.536 56.8502 61.0422 57.8814 61.0422C58.5938 61.0422 58.8188 60.9484 59.3625 60.4047C59.8875 59.8797 60 59.636 60 58.9423C60 57.0674 55.9502 51.7802 52.0317 48.4991C44.7758 42.4619 35.4013 39.5933 26.2517 40.6245Z" fill="#C5C5C5"/>
</svg>
