<svg width="85" height="94" viewBox="0 0 85 94" fill="none" xmlns="http://www.w3.org/2000/svg">
<path d="M53.372 44.65L19.7673 37.6V89.6924C19.7673 92.0714 21.3896 94 23.3907 94H81.3765C83.3776 94 84.9999 92.0714 84.9999 89.6924V70.5L53.372 44.65Z" fill="#185C37"/>
<path d="M53.372 0H23.3907C21.3896 0 19.7673 1.92854 19.7673 4.30754V23.5L53.372 47L71.1627 54.05L84.9999 47V23.5L53.372 0Z" fill="#21A366"/>
<path d="M19.7673 23.5H53.372V47H19.7673V23.5Z" fill="#107C41"/>
<path opacity="0.1" d="M43.8184 18.7999H19.7673V77.5499H43.8184C45.8168 77.5422 47.4352 75.6182 47.4417 73.2424V23.1075C47.4352 20.7317 45.8168 18.8076 43.8184 18.7999Z" fill="black"/>
<path opacity="0.2" d="M41.8416 21.15H19.7673V79.9H41.8416C43.8401 79.8923 45.4585 77.9683 45.465 75.5925V25.4576C45.4585 23.0818 43.8401 21.1577 41.8416 21.15Z" fill="black"/>
<path opacity="0.2" d="M41.8416 21.15H19.7673V75.2H41.8416C43.8401 75.1923 45.4585 73.2683 45.465 70.8925V25.4576C45.4585 23.0818 43.8401 21.1577 41.8416 21.15Z" fill="black"/>
<path opacity="0.2" d="M39.8649 21.15H19.7673V75.2H39.8649C41.8633 75.1923 43.4818 73.2683 43.4883 70.8925V25.4576C43.4818 23.0818 41.8633 21.1577 39.8649 21.15Z" fill="black"/>
<path d="M3.62336 21.15H39.865C41.8661 21.15 43.4883 23.0786 43.4883 25.4576V68.5424C43.4883 70.9214 41.8661 72.85 39.865 72.85H3.62336C1.62223 72.85 0 70.9215 0 68.5425V25.4576C0 23.0786 1.62223 21.15 3.62336 21.15Z" fill="url(#paint0_linear_550_338)"/>
<path d="M81.3766 0H53.3721V23.5H85V4.30754C85 1.92854 83.3777 0 81.3766 0Z" fill="#33C481"/>
<path d="M53.3721 47H85V70.5H53.3721V47Z" fill="#107C41"/>
<path d="M9 61.005L18.0616 46.9637L9.75906 33H16.4377L20.9685 41.93C21.3869 42.7783 21.6735 43.4081 21.8287 43.8241H21.8874C22.1803 43.1573 22.4938 42.4998 22.8274 41.8524L27.6707 33.0047H33.8019L25.2878 46.8862L34.0181 61.0049H27.4945L22.2611 51.2031C22.0145 50.7861 21.8054 50.3481 21.636 49.8942H21.5584C21.4051 50.3388 21.2017 50.7646 20.9521 51.1632L15.5636 61.005H9Z" fill="white"/>
<defs>
<linearGradient id="paint0_linear_550_338" x1="7.5548" y1="17.7842" x2="43.9062" y2="70.7434" gradientUnits="userSpaceOnUse">
<stop stop-color="#18884F"/>
<stop offset="0.5" stop-color="#117E43"/>
<stop offset="1" stop-color="#0B6631"/>
</linearGradient>
</defs>
</svg>
