<svg width="55" height="55" viewBox="0 0 55 55" fill="none" xmlns="http://www.w3.org/2000/svg">
<g clip-path="url(#clip0_323_98)">
<path d="M14.3002 2.19995C13.6919 2.19995 13.2002 2.69275 13.2002 3.29995V51.7C13.2002 52.0938 13.4102 52.4581 13.7523 52.6539C14.0944 52.8497 14.5146 52.8476 14.8545 52.6496L27.5002 45.274L40.1459 52.6496C40.3164 52.7497 40.5088 52.8 40.7002 52.8C40.8894 52.8 41.0786 52.7518 41.248 52.6539C41.5901 52.4581 41.8002 52.0938 41.8002 51.7V36.4847L39.6002 37.8919V49.7857L28.0545 43.0503C27.884 42.9502 27.6916 42.9 27.5002 42.9C27.3088 42.9 27.1164 42.9502 26.9459 43.0503L15.4002 49.7857V4.39995H39.6002V14.5255L39.9805 13.5287L40.3135 13.1957C40.5555 12.9537 41.084 12.5017 41.8023 12.2289V3.29995C41.8023 2.69275 41.3106 2.19995 40.7023 2.19995H14.3002ZM42.9689 14.2011C42.5289 14.2011 42.0889 14.5311 41.8689 14.7511L39.2285 21.682L31.8594 22.1224C31.4194 22.1224 30.9789 22.4516 30.8689 22.8916C30.7589 23.3316 30.8694 23.8811 31.3094 24.1011L36.9189 28.7224L35.0477 35.8724C34.9377 36.3124 35.1581 36.862 35.4881 37.082C35.7081 37.192 35.9277 37.3011 36.1477 37.3011C36.3688 37.3011 36.5905 37.192 36.8094 37.082L42.9689 33.1224L49.1285 37.1916C49.4585 37.5216 50.0081 37.4116 50.3381 37.1916C50.7781 36.8616 50.8885 36.422 50.7785 35.982L48.9094 28.832L54.6285 24.2128C54.9585 23.8828 55.0694 23.4411 54.9594 23.0011C54.8494 22.5611 54.4089 22.232 53.9689 22.232L46.5977 21.7916L43.9594 14.8628C43.8494 14.5328 43.4089 14.2011 42.9689 14.2011ZM42.9689 18.382L44.7285 23.332C44.9485 23.662 45.2789 23.9916 45.7189 23.9916L50.9998 24.3224L46.9285 27.6224C46.5985 27.8424 46.4898 28.2824 46.5998 28.7224L47.9189 33.782L43.5189 30.9224C43.4089 30.8124 43.1889 30.7011 42.9689 30.7011C42.7478 30.7011 42.5294 30.8128 42.3094 30.8128L37.9094 33.6724L39.2285 28.6128C39.3385 28.2828 39.2298 27.7328 38.8998 27.5128L34.8285 24.2128L40.1094 23.9916C40.5494 23.8816 40.8798 23.6624 41.0998 23.2224L42.9689 18.382Z" fill="#CCC"/>
</g>
<defs>
<clipPath id="clip0_323_98">
<rect width="55" height="55" fill=""/>
</clipPath>
</defs>
</svg>
