<svg width="140" height="140" viewBox="0 0 140 140" fill="none" xmlns="http://www.w3.org/2000/svg">
<path d="M13.6957 21C9.03928 21 5.25 24.1407 5.25 28V42V49H134.75V42V37.3333C134.75 33.474 130.961 30.3333 126.304 30.3333L50.4199 30.347C49.6345 30.1113 48.0101 27.9678 47.1374 26.8151C44.9781 23.9591 42.7403 21 39.0326 21H13.6957ZM8.06522 46.6667C6.51122 46.6667 5.25 47.712 5.25 49V112C5.25 115.866 9.03084 119 13.6957 119H126.304C130.969 119 134.75 115.866 134.75 112V49C134.75 47.712 133.489 46.6667 131.935 46.6667H8.06522Z" fill="#C5C5C5"/>
</svg>
