<svg width="55" height="55" viewBox="0 0 55 55" fill="none" xmlns="http://www.w3.org/2000/svg">
<path d="M7.36636 27.5001C7.36636 23.5671 11.567 19.3664 15.5 19.3664H23.7C24.2523 19.3664 24.7 18.9187 24.7 18.3664V17.0001C24.7 16.4478 24.2523 16.0001 23.7 16.0001H15.5C9.152 16.0001 4 21.1521 4 27.5001C4 33.8481 9.152 39.0001 15.5 39.0001H23.7C24.2523 39.0001 24.7 38.5524 24.7 38.0001V36.6337C24.7 36.0814 24.2523 35.6337 23.7 35.6337H15.5C11.567 35.6337 7.36636 31.4331 7.36636 27.5001ZM17.8 28.8001C17.8 29.3524 18.2477 29.8001 18.8 29.8001H35.2C35.7523 29.8001 36.2 29.3524 36.2 28.8001V26.2001C36.2 25.6478 35.7523 25.2001 35.2 25.2001H18.8C18.2477 25.2001 17.8 25.6478 17.8 26.2001V28.8001ZM38.5 16.0001H30.3C29.7477 16.0001 29.3 16.4478 29.3 17.0001V18.3664C29.3 18.9187 29.7477 19.3664 30.3 19.3664H38.5C42.433 19.3664 46.6336 23.5671 46.6336 27.5001C46.6336 31.4331 42.433 35.6337 38.5 35.6337H30.3C29.7477 35.6337 29.3 36.0814 29.3 36.6337V38.0001C29.3 38.5524 29.7477 39.0001 30.3 39.0001H38.5C44.848 39.0001 50 33.8481 50 27.5001C50 21.1521 44.848 16.0001 38.5 16.0001Z" fill="#CCC"/>
</svg>
