<svg width="48" height="48" viewBox="0 0 48 48" fill="none" xmlns="http://www.w3.org/2000/svg">
    <path d="M47.763 28.1583C47.7535 28.1394 39.9757 7.56557 39.9474 7.51832C39.2575 6.19524 37.8966 5.37305 36.4034 5.37305H11.6053C10.1121 5.37305 8.75119 6.19524 8.0613 7.51832C8.03295 7.56557 0.245714 28.1394 0.245714 28.1583C0.0945053 28.5836 0 29.0466 0 29.5192V38.6295C0 40.8314 1.7956 42.627 3.99757 42.627H44.0017C46.2036 42.627 47.9992 40.8314 47.9992 38.6295V29.5192C48.0087 29.0372 47.9236 28.5836 47.763 28.1583ZM6.50197 19.133H10.3672C11.1044 19.133 11.6998 18.5376 11.6998 17.8005C11.6998 17.0634 11.1044 16.468 10.3672 16.468H7.51317L8.52438 13.7935H14.3743C15.1114 13.7935 15.7068 13.1981 15.7068 12.4609C15.7068 11.7238 15.1114 11.1284 14.3743 11.1284H9.53559L10.4523 8.69018C10.6885 8.28381 11.1233 8.0381 11.6053 8.0381H36.4129C36.8854 8.0381 37.3201 8.28381 37.5659 8.69963L43.9261 25.5216H4.09208L6.50197 19.133ZM44.0111 39.962H3.99757C3.26043 39.962 2.66505 39.3666 2.66505 38.6295V29.5192C2.66505 28.782 3.26043 28.1866 3.99757 28.1866H44.0017C44.7388 28.1866 45.3342 28.782 45.3342 29.5192V38.6295H45.3436C45.3436 39.3666 44.7483 39.962 44.0111 39.962Z" fill="#C5C5C5"/>
    <path d="M26.1779 32.7417H6.36011C5.62297 32.7417 5.02759 33.3371 5.02759 34.0742C5.02759 34.8114 5.62297 35.4067 6.36011 35.4067H26.1779C26.915 35.4067 27.5104 34.8114 27.5104 34.0742C27.5104 33.3371 26.915 32.7417 26.1779 32.7417Z" fill="#C5C5C5"/>
    <path d="M41.6485 32.7417H39.6072C38.87 32.7417 38.2747 33.3371 38.2747 34.0742C38.2747 34.8114 38.87 35.4067 39.6072 35.4067H41.6485C42.3856 35.4067 42.981 34.8114 42.981 34.0742C42.981 33.3371 42.3856 32.7417 41.6485 32.7417Z" fill="#C5C5C5"/>
    <path d="M33.6439 32.7417H31.6025C30.8654 32.7417 30.27 33.3371 30.27 34.0742C30.27 34.8114 30.8654 35.4067 31.6025 35.4067H33.6439C34.381 35.4067 34.9764 34.8114 34.9764 34.0742C34.9764 33.3371 34.381 32.7417 33.6439 32.7417Z" fill="#C5C5C5"/>
</svg>
