<svg width="100" height="100" viewBox="0 0 100 100" fill="none" xmlns="http://www.w3.org/2000/svg">
<path d="M87.1094 27.5156V85.9375C87.0949 88.3342 86.1292 90.627 84.4247 92.3118C82.7201 93.9966 80.4162 94.9354 78.0195 94.9219H21.9805C19.5838 94.9354 17.2799 93.9966 15.5753 92.3118C13.8708 90.627 12.9051 88.3342 12.8906 85.9375V14.0625C12.9051 11.6659 13.8708 9.37309 15.5753 7.6883C17.2799 6.0035 19.5838 5.06464 21.9805 5.07815H64.4102C66.8153 5.07501 69.1245 6.02115 70.8359 7.71096L84.4492 21.1641C85.291 21.994 85.9595 22.9828 86.4162 24.0731C86.8728 25.1634 87.1084 26.3336 87.1094 27.5156Z" fill="#001E36"/>
<path d="M30.4688 53.5937V23.2148C30.4623 23.1727 30.4657 23.1295 30.4789 23.0889C30.492 23.0483 30.5145 23.0113 30.5445 22.9809C30.5744 22.9506 30.6111 22.9276 30.6516 22.914C30.692 22.9003 30.7351 22.8964 30.7774 22.9023C33 22.8438 35.6289 22.6562 39.0625 22.6562C43.1055 22.6562 46.0664 23.5117 47.9571 25.3555C48.8753 26.2366 49.6005 27.2988 50.0867 28.4749C50.5728 29.651 50.8094 30.9152 50.7813 32.1875C50.7813 35.5495 49.6094 38.0495 47.2657 39.6875C44.9219 41.3255 41.9792 42.1445 38.4375 42.1445L35.9375 42.1875V53.5508C35.9375 53.7891 35.8399 53.9062 35.6055 53.9062H30.8203C30.586 53.9062 30.4688 53.8008 30.4688 53.5937ZM35.9375 27.0312V37.9961C36.8576 37.9238 37.7811 37.9069 38.7032 37.9453C40.6641 37.9453 42.2526 37.5065 43.4688 36.6289C44.6849 35.7513 45.293 34.319 45.293 32.332C45.293 30.5794 44.7578 29.2253 43.6875 28.2695C42.6172 27.3138 41.0756 26.8346 39.0625 26.832C38.5664 26.832 38.0743 26.832 37.5938 26.832C37.1133 26.832 36.7149 26.8555 36.4219 26.8555C36.1289 26.8555 35.9063 26.875 35.9375 27.0156V27.0312ZM69.5313 46.7227C69.5591 47.6661 69.3729 48.6037 68.9866 49.4649C68.6003 50.3261 68.024 51.0887 67.3008 51.6953C67.168 51.8242 67.0274 51.9453 66.8789 52.0664C65.3425 53.293 63.2657 53.9062 60.6485 53.9062C58.0313 53.9062 55.8881 53.4297 54.2188 52.4766C54.1291 52.4429 54.0535 52.3796 54.0045 52.2973C53.9555 52.2149 53.936 52.1183 53.9493 52.0234V47.8594C53.9447 47.812 53.9528 47.7643 53.9727 47.7211C53.9926 47.6778 54.0236 47.6407 54.0625 47.6133C54.0927 47.5916 54.1298 47.5819 54.1667 47.5863C54.2036 47.5906 54.2375 47.6086 54.2618 47.6367C56.0384 49.0156 58.2199 49.7707 60.4688 49.7852C61.3015 49.8374 62.1312 49.6446 62.8555 49.2305C63.1055 49.0784 63.312 48.8644 63.4551 48.6092C63.5981 48.3539 63.6728 48.066 63.6719 47.7734C63.6781 47.4761 63.6215 47.1808 63.5057 46.9068C63.3899 46.6328 63.2176 46.3864 63 46.1836C62.5547 45.7487 61.6771 45.2786 60.3672 44.7734C57.9844 43.8464 56.3256 42.8529 55.3907 41.793C54.4139 40.7306 53.8825 39.3336 53.9063 37.8906C53.9075 36.9875 54.1035 36.0953 54.481 35.2749C54.8586 34.4544 55.4087 33.7251 56.0938 33.1367C57.5 31.8789 59.4935 31.25 62.0743 31.25C64.4883 31.25 66.4336 31.5781 67.7461 32.2383C67.8946 32.3242 67.9688 32.5195 67.9688 32.8164V36.5312C67.9688 36.8906 67.836 36.9805 67.5782 36.8008C65.9894 35.7908 64.1482 35.2493 62.2657 35.2383C61.224 35.2383 60.4584 35.4323 59.9688 35.8203C59.7448 35.9766 59.5611 36.1838 59.4328 36.4248C59.3044 36.6659 59.2351 36.934 59.2305 37.207C59.2304 37.4733 59.2859 37.7366 59.3935 37.9801C59.5012 38.2236 59.6585 38.442 59.8555 38.6211C60.2696 39.0247 61.1472 39.4935 62.4883 40.0273C64.8321 40.9336 66.5092 41.8841 67.5196 42.8789L67.5469 42.9062C68.5664 43.8477 69.5313 45.1523 69.5313 46.7227Z" fill="#31A8FF"/>
<path d="M33.5937 83.4453V69.7227C33.5937 69.625 33.6367 69.5742 33.7187 69.5742C34.6249 69.5456 35.8958 69.5312 37.5312 69.5312C39.3906 69.5312 40.7656 69.9609 41.6445 70.8164C42.0775 71.2309 42.419 71.7314 42.6471 72.2857C42.8751 72.84 42.9847 73.436 42.9687 74.0352C42.9687 75.5977 42.4296 76.7695 41.3515 77.5508C40.1467 78.3709 38.7101 78.7817 37.2539 78.7227H36.5664H35.9374V83.4609C35.9374 83.5586 35.8828 83.6094 35.7695 83.6094H33.7421C33.7205 83.6126 33.6983 83.6105 33.6777 83.6031C33.6571 83.5957 33.6386 83.5834 33.6239 83.5671C33.6092 83.5509 33.5988 83.5313 33.5935 83.51C33.5882 83.4888 33.5883 83.4665 33.5937 83.4453ZM35.9374 71.5078V76.7305C36.3515 76.7617 36.7617 76.7734 37.3828 76.7734C38.1579 76.8072 38.923 76.5878 39.5624 76.1484C40.1249 75.7318 40.4062 75.0417 40.4062 74.0781C40.4267 73.7227 40.3703 73.367 40.2408 73.0354C40.1114 72.7037 39.912 72.4039 39.6562 72.1563C39.0591 71.6702 38.2992 71.43 37.5312 71.4844C36.7812 71.4844 36.3281 71.4844 35.9374 71.5078ZM48.621 83.5938C47.3828 83.6325 46.1551 83.3542 45.0546 82.7852C45.0109 82.7516 44.9765 82.7074 44.9547 82.6568C44.9328 82.6062 44.9242 82.5509 44.9296 82.4961V80.4688C44.9296 80.332 44.9843 80.3047 45.0976 80.3867C46.1385 81.1513 47.3921 81.5719 48.6835 81.5898C49.2948 81.6387 49.9039 81.4729 50.4062 81.1211C50.5806 80.9801 50.7207 80.8013 50.8161 80.5984C50.9115 80.3954 50.9597 80.1735 50.957 79.9492C50.9627 79.7465 50.928 79.5447 50.8549 79.3556C50.7818 79.1665 50.6717 78.9938 50.5312 78.8477C50.0612 78.4099 49.5124 78.0653 48.914 77.832L48.1328 77.4609C47.2105 77.0768 46.3896 76.4846 45.7343 75.7305C45.238 75.0735 44.9866 74.2639 45.0234 73.4414C45.0138 72.9163 45.1169 72.3953 45.3258 71.9135C45.5347 71.4317 45.8445 71.0003 46.2343 70.6484C47.039 69.9167 48.1861 69.5508 49.6757 69.5508C50.7023 69.504 51.7253 69.7022 52.6601 70.1289C52.7421 70.1602 52.7851 70.2422 52.7851 70.3789V72.2617C52.7862 72.2797 52.7829 72.2976 52.7754 72.314C52.7679 72.3303 52.7565 72.3446 52.7421 72.3555C52.7148 72.3789 52.6718 72.3555 52.6171 72.3555C51.7209 71.7781 50.6754 71.4753 49.6093 71.4844C49.0181 71.4307 48.4296 71.6133 47.9726 71.9922C47.8164 72.1318 47.6904 72.3019 47.6024 72.492C47.5144 72.6821 47.4662 72.8882 47.4609 73.0977C47.4552 73.5258 47.6035 73.9417 47.8788 74.2695C48.3381 74.7049 48.8764 75.0483 49.4648 75.2813L50.3007 75.6719C51.5221 76.237 52.3632 76.8333 52.8242 77.4609C53.3651 78.2362 53.5994 79.1844 53.4818 80.1224C53.3642 81.0603 52.903 81.9214 52.1874 82.5391C51.3124 83.2422 50.1236 83.5938 48.621 83.5938ZM55.4687 83.3594V69.7422C55.4631 69.7034 55.4731 69.6639 55.4965 69.6324C55.52 69.6009 55.5549 69.58 55.5937 69.5742C57.1015 69.5469 58.4374 69.5312 59.6093 69.5312C61.8281 69.5312 63.5156 70.1602 64.6874 71.4141C65.8593 72.668 66.4218 74.3242 66.4218 76.3711C66.4381 77.3609 66.2862 78.3462 65.9726 79.2852C65.7245 80.0438 65.3333 80.7479 64.8203 81.3594C64.3472 81.8946 63.7806 82.3394 63.1484 82.6719C62.5454 83.002 61.8982 83.244 61.2265 83.3906C60.5767 83.5282 59.9141 83.5962 59.2499 83.5938C57.9374 83.5938 56.7265 83.5937 55.6093 83.5508C55.5117 83.5508 55.4687 83.4883 55.4687 83.3594ZM57.8124 71.4844V81.6406C58.4648 81.668 58.9101 81.6836 59.3749 81.6836C59.974 81.7162 60.5732 81.6204 61.1323 81.4029C61.6914 81.1853 62.1976 80.8508 62.6171 80.4219C63.3984 79.5833 63.789 78.2591 63.789 76.4492C63.789 74.7591 63.4231 73.5065 62.6914 72.6914C62.3005 72.2773 61.8239 71.9537 61.2949 71.7432C60.7659 71.5327 60.1973 71.4403 59.6288 71.4727C58.7734 71.457 58.2421 71.4844 57.8124 71.4844Z" fill="white"/>
<path d="M64.8672 7.03128C65.5856 7.02995 66.2971 7.17077 66.9608 7.44564C67.6245 7.72051 68.2273 8.12399 68.7344 8.63284L82.7734 22.6563C83.2823 23.1634 83.6858 23.7661 83.9606 24.4298C84.2355 25.0936 84.3763 25.8051 84.375 26.5235V87.5C84.375 88.9504 83.7988 90.3414 82.7732 91.367C81.7476 92.3926 80.3567 92.9688 78.9062 92.9688H21.0938C19.6433 92.9688 18.2523 92.3926 17.2268 91.367C16.2012 90.3414 15.625 88.9504 15.625 87.5V12.5C15.625 11.0496 16.2012 9.65863 17.2268 8.63304C18.2523 7.60745 19.6433 7.03128 21.0938 7.03128H64.8672ZM64.8672 3.12503H21.0938C18.6073 3.12503 16.2228 4.11275 14.4646 5.8709C12.7065 7.62906 11.7188 10.0136 11.7188 12.5V87.5C11.7188 89.9864 12.7065 92.371 14.4646 94.1292C16.2228 95.8873 18.6073 96.875 21.0938 96.875H78.9062C81.3927 96.875 83.7772 95.8873 85.5354 94.1292C87.2935 92.371 88.2812 89.9864 88.2812 87.5V26.5391C88.2843 25.3068 88.0443 24.086 87.5751 22.9466C87.1059 21.8071 86.4167 20.7713 85.5469 19.8985L71.4844 5.8594C70.6115 4.98956 69.5757 4.30033 68.4363 3.83114C67.2968 3.36195 66.076 3.12201 64.8438 3.12503H64.8672Z" fill="#31A8FF"/>
</svg>
