<svg width="55" height="47" viewBox="0 0 55 47" fill="none" xmlns="http://www.w3.org/2000/svg">
<circle cx="33.1122" cy="14.0306" r="13.0306" fill="#D9D9D9" stroke="#5F6368" stroke-width="2"/>
<path d="M53.9999 42.967C53.8363 43.0684 53.5494 43.1995 53.1038 43.3434C52.1567 43.6494 50.7214 43.9426 48.8521 44.1953C45.1283 44.6987 39.844 45.0204 33.6735 45.0204C27.5038 45.0204 21.6511 44.6988 17.3553 44.1931C15.2012 43.9396 13.4727 43.6435 12.3007 43.3291C11.7281 43.1755 11.3397 43.0307 11.1096 42.91C11.2514 39.9649 13.397 37.1301 17.1759 34.9559C21.0611 32.7206 26.4948 31.3062 32.551 31.3062C38.1281 31.3062 42.2624 31.666 45.3266 32.3004C48.3946 32.9355 50.3235 33.8326 51.5539 34.8575C53.8902 36.8035 53.9962 39.4393 53.9999 42.967ZM54.117 42.8807C54.1177 42.8807 54.1136 42.8854 54.1029 42.8945C54.111 42.8852 54.1164 42.8806 54.117 42.8807Z" fill="#CCC" stroke="#5F6368" stroke-width="2"/>
<circle cx="23.0101" cy="14.0306" r="13.0306" fill="#CCC" stroke="#5F6368" stroke-width="2"/>
<path d="M43.8978 42.967C43.7342 43.0684 43.4473 43.1995 43.0018 43.3434C42.0546 43.6494 40.6194 43.9426 38.7501 44.1953C35.0262 44.6987 29.7419 45.0204 23.5714 45.0204C17.4018 45.0204 11.549 44.6988 7.25329 44.1931C5.09914 43.9396 3.37069 43.6435 2.19865 43.3291C1.61996 43.1739 1.22939 43.0276 1.00019 42.9061C1.00509 39.4089 1.12325 36.7923 3.44613 34.8575C4.67653 33.8326 6.60543 32.9355 9.6734 32.3004C12.7376 31.666 16.8719 31.3061 22.449 31.3062C28.026 31.3062 32.1603 31.666 35.2246 32.3004C38.2925 32.9355 40.2214 33.8326 41.4518 34.8575C43.7882 36.8035 43.8942 39.4393 43.8978 42.967ZM44.015 42.8807C44.0156 42.8807 44.0116 42.8854 44.0009 42.8945C44.009 42.8852 44.0143 42.8806 44.015 42.8807Z" fill="#CCC" stroke="#5F6368" stroke-width="2"/>
</svg>
